<svg width="212" height="182" viewBox="0 0 212 182" fill="none" xmlns="http://www.w3.org/2000/svg">
<g opacity="0.382929">
<path d="M1 0H98V74.7181C98 102.226 92.2767 123.973 80.8299 139.957C69.3831 155.942 49.8346 169.956 22.1839 182L1 142.299C18.2445 134.27 30.1 126.277 36.5667 118.322C43.0334 110.367 46.6383 100.962 47.3816 90.1078H1V0Z" fill="#C7C7C7"/>
<path d="M114 0H211V74.7181C211 102.226 205.277 123.973 193.83 139.957C182.383 155.942 162.835 169.956 135.184 182L114 142.299C131.245 134.27 143.1 126.277 149.567 118.322C156.033 110.367 159.638 100.962 160.382 90.1078H114V0Z" fill="#C7C7C7"/>
</g>
</svg>
