<svg height="15.999984" viewBox="0 0 4.2333269 4.2333292" width="15.999976" xmlns="http://www.w3.org/2000/svg"><path d="m59.790644 98.319473-.257344-.243034-.442731-.01355c-.409236-.01252-.454046-.02027-.592395-.102358-.169884-.100801-.248582-.18125-.361866-.369879l-.07916-.131777v-1.268353-1.268352l.07916-.131777c.112861-.187929.191601-.268655.361866-.371146l.14969-.09007h1.525969 1.525968l.149649.09007c.170307.102491.249004.183217.361865.371146l.07916.131777v1.268352 1.268353l-.0897.150251c-.101896.170599-.183092.250557-.366607.360915-.113114.06802-.180594.07885-.574289.09218l-.446113.0151-.257048.242593c-.227203.214441-.271653.242592-.382863.242592-.111252 0-.155617-.02813-.383159-.243034zm.601934-.642847c.09902-.08861.225086-.170146.280077-.181193.05503-.01105.27813-.02009.495825-.02009.361188 0 .402421-.0063.471741-.07163l.07595-.07163v-1.136946c0-1.121988-.00099-1.137949-.07133-1.213194l-.07133-.07625h-1.395081c-1.387187 0-1.395497.00041-1.471024.07163l-.07595.07163v1.136946c0 1.409246-.05368 1.289441.577871 1.289441.239353 0 .469888.01325.512327.02945.04242.0162.150452.09714.240072.179885.08958.08274.182668.151024.206883.151743.02413.000723.124968-.07119.224028-.159799zm-1.071995-.684968c-.205274-.07865-.264795-.330294-.112183-.474187l.08471-.07987h.880753.880754l.08467.07987c.116628.110023.11667.290262.000033.400318-.08462.07986-.08467.07987-.92707.0863-.463334.0035-.864582-.0021-.891654-.01243zm0-1.054215c-.205274-.07865-.264795-.330294-.112183-.474187l.08471-.07987h.880753.880754s.05643.05325.08467.07987c.116628.110022.116628.29026.000033.400318-.08462.07986-.08467.07987-.92707.0863-.463334.0035-.864582-.0021-.891654-.01243z" stroke-width=".03288" transform="translate(-58.057148 -94.329177)"/></svg>